<?xml version="1.0" standalone="no"?>
<svg
  width="600"
  height="600"
  viewBox="0 0 600 600"
  xmlns="http://www.w3.org/2000/svg"
>
  <g transform="translate(300,300)">
    <path d="M89.1,-91.8C134.9,-67.7,204.8,-58.1,225.6,-26.9C246.4,4.2,218,56.9,183.2,95C148.3,133.1,107,156.8,63.9,170C20.9,183.2,-23.9,186.1,-68.7,175.5C-113.4,164.9,-158,141,-175.8,104.3C-193.5,67.7,-184.4,18.4,-163,-15.8C-141.5,-50,-107.7,-69,-78.5,-96C-49.3,-123.1,-24.6,-158,-1.5,-156.2C21.6,-154.5,43.3,-115.9,89.1,-91.8Z" fill="#373a47" />
  </g>
</svg>
    